<svg width="30" height="30" viewBox="0 0 30 30" fill="none" xmlns="http://www.w3.org/2000/svg">
<path d="M3.54203 22.8033C3.54203 22.808 3.54203 22.8168 3.53662 22.829C3.53865 22.8209 3.54 22.8121 3.54203 22.8033Z" fill="black"/>
<path d="M25.7754 23.766C25.5825 23.7618 25.392 23.7221 25.2135 23.6488L21.8865 22.4693L21.8619 22.4593C21.7894 22.4291 21.7114 22.414 21.6328 22.4148C21.5604 22.4149 21.4885 22.428 21.4207 22.4535C21.3399 22.484 20.6116 22.7576 19.8475 22.9674C19.4332 23.081 17.9912 23.4519 16.834 23.4519C13.8762 23.4519 11.1106 22.3152 9.04749 20.2509C8.03963 19.2493 7.24045 18.0576 6.69623 16.745C6.15201 15.4324 5.87356 14.0248 5.87698 12.6039C5.87696 11.8635 5.95672 11.1252 6.11487 10.4019C6.62991 8.02185 7.99398 5.85682 9.95569 4.30818C11.968 2.72969 14.4522 1.87293 17.0098 1.87537C20.069 1.87537 22.9196 3.04725 25.0371 5.16717C27.0387 7.17517 28.1356 9.81541 28.1268 12.601C28.125 14.6708 27.507 16.6933 26.3514 18.4105L26.3403 18.4269L26.2969 18.4855C26.2869 18.499 26.277 18.5119 26.2676 18.5254L26.2588 18.5412C26.2355 18.5808 26.2144 18.6217 26.1955 18.6636L27.1178 21.9414C27.1586 22.0766 27.1807 22.2168 27.1834 22.358C27.1837 22.5429 27.1474 22.7261 27.0767 22.8971C27.006 23.068 26.9023 23.2233 26.7715 23.3541C26.6408 23.4849 26.4854 23.5886 26.3145 23.6593C26.1436 23.73 25.9604 23.7662 25.7754 23.766Z" fill="black"/>
<path d="M17.5705 24.9262C17.51 24.8084 17.4248 24.7051 17.3208 24.6232C17.2167 24.5413 17.0963 24.4828 16.9676 24.4516C16.6289 24.3619 16.234 24.3772 15.9323 24.3549C13.083 24.1568 10.4018 22.934 8.38421 20.9125C6.5905 19.1288 5.42477 16.8108 5.06253 14.3072C4.9805 13.7365 4.9805 13.5947 4.9805 13.5947C4.98046 13.4043 4.92245 13.2184 4.81417 13.0618C4.70589 12.9052 4.55249 12.7852 4.37437 12.7179C4.19625 12.6506 4.00186 12.6392 3.81706 12.685C3.63226 12.7309 3.46582 12.832 3.33987 12.9748C3.33987 12.9748 2.87815 13.4775 2.66019 13.982C2.04887 15.3906 1.78816 16.9263 1.90042 18.4576C2.01267 19.989 2.49453 21.4703 3.30472 22.7746C3.45706 23.0283 3.45706 23.1455 3.42308 23.4092C3.26311 24.2359 2.98304 25.6943 2.83714 26.4508C2.78883 26.6961 2.8068 26.9499 2.88919 27.1859C2.97159 27.422 3.11542 27.6318 3.30589 27.7938L3.33284 27.8166C3.5848 28.0167 3.89702 28.1257 4.21878 28.126C4.39976 28.1261 4.57898 28.0905 4.74612 28.0211L7.88147 26.8111C7.98942 26.7701 8.10868 26.7701 8.21663 26.8111C9.4512 27.2705 10.7362 27.5143 11.9537 27.5143C13.4708 27.5157 14.9695 27.1824 16.343 26.5381C16.6629 26.3881 17.1633 26.2252 17.4563 25.8865C17.5671 25.7552 17.6371 25.5942 17.6574 25.4235C17.6777 25.2528 17.6475 25.0799 17.5705 24.9262Z" fill="black"/>
</svg>
