<svg width="32" height="32" viewBox="0 0 32 32" fill="none" xmlns="http://www.w3.org/2000/svg">
<path d="M16 2.9985C8.83187 2.9985 3 8.83038 3 15.9985C3 23.1666 8.83187 28.9985 16 28.9985C23.1681 28.9985 29 23.1666 29 15.9985C29 8.83038 23.1681 2.9985 16 2.9985ZM12.8612 10.2998C13.6531 9.46038 14.7675 8.9985 16 8.9985C17.2325 8.9985 18.3369 9.4635 19.1319 10.3073C19.9375 11.1623 20.3294 12.311 20.2369 13.546C20.0519 15.9985 18.1519 17.9985 16 17.9985C13.8481 17.9985 11.9444 15.9985 11.7631 13.5454C11.6712 12.3004 12.0625 11.1479 12.8612 10.2998ZM16 26.9985C14.5315 26.9995 13.0778 26.7056 11.7251 26.1342C10.3724 25.5628 9.14812 24.7256 8.125 23.6723C8.71097 22.8366 9.45759 22.1261 10.3212 21.5823C11.9144 20.561 13.9306 19.9985 16 19.9985C18.0694 19.9985 20.0856 20.561 21.6769 21.5823C22.5412 22.1259 23.2885 22.8364 23.875 23.6723C22.852 24.7257 21.6277 25.563 20.275 26.1344C18.9222 26.7058 17.4685 26.9996 16 26.9985Z" fill="black"/>
</svg>
